# xmcd
#
# Track frame offsets:
#	150
#	16310
#	34479
#	51499
#	64880
#	86767
#	102422
#	123023
#	140110
#	155774
#	171929
#	188018
#	207044
#	227059
#	243229
#	261401
#	276832
#	295915
#	313361
#	326841
#
# Disc length: 4606 seconds
#
# Revision: 0
# Processed by: cddbd v1.4PL0 Copyright (c) Steve Scherf et al.
# Submitted via: EasyCDDAExtractor 4.6.0.1
#
DISCID=3911fc14
DTITLE=GOLEC u ORKIESTRA - GOLEC u ORKIESTRA 3
DYEAR=1900
DGENRE=Country
TTITLE0=Pedza konie
TTITLE1=Gdzie sie podzialy nasze podatki
TTITLE2=Zwierzenia pewnego cienia
TTITLE3=Slonik
TTITLE4=Kto sie ceni
TTITLE5=Walc chemiczny
TTITLE6=Zwycienstwo
TTITLE7=Mow do mnie mily
TTITLE8=Polamaniec
TTITLE9=Pragne cie milowac
TTITLE10=Nie dajmy sie
TTITLE11=Plaza
TTITLE12=Dzrewa
TTITLE13=Sciernisko
TTITLE14=Slodycze
TTITLE15=Tatoo
TTITLE16=Ty i tylko ty
TTITLE17=Kuku
TTITLE18=Crazy is my life
TTITLE19=Chalpa sie polila
EXTD=
EXTT0=
EXTT1=
EXTT2=
EXTT3=
EXTT4=
EXTT5=
EXTT6=
EXTT7=
EXTT8=
EXTT9=
EXTT10=
EXTT11=
EXTT12=
EXTT13=
EXTT14=
EXTT15=
EXTT16=
EXTT17=
EXTT18=
EXTT19=
PLAYORDER=
